<svg xmlns="http://www.w3.org/2000/svg" style="display:none">
  <!-- Digital Double Technologies Inc · shared icon sprite.
       Reference in STATIC HTML only: <svg class="ddt-icon"><use href="icons.svg#name"></use></svg>
       Never inject <use> references into JavaScript string literals. -->
  <defs>
    <style>
      symbol{stroke:currentColor;stroke-width:1.75;fill:none;stroke-linecap:round;stroke-linejoin:round}
    </style>
  </defs>

  <symbol id="upload" viewBox="0 0 24 24">
    <path d="M12 15V4"/><path d="M8 8l4-4 4 4"/><path d="M4 15v3a2 2 0 0 0 2 2h12a2 2 0 0 0 2-2v-3"/>
  </symbol>

  <symbol id="scan" viewBox="0 0 24 24">
    <path d="M4 8V6a2 2 0 0 1 2-2h2"/><path d="M16 4h2a2 2 0 0 1 2 2v2"/>
    <path d="M20 16v2a2 2 0 0 1-2 2h-2"/><path d="M8 20H6a2 2 0 0 1-2-2v-2"/>
    <path d="M4 12h16"/>
  </symbol>

  <symbol id="shield-check" viewBox="0 0 24 24">
    <path d="M12 3l7 3v5c0 4.5-3 7.5-7 9-4-1.5-7-4.5-7-9V6z"/><path d="M9 12l2 2 4-4"/>
  </symbol>

  <symbol id="shield-x" viewBox="0 0 24 24">
    <path d="M12 3l7 3v5c0 4.5-3 7.5-7 9-4-1.5-7-4.5-7-9V6z"/><path d="M10 10l4 4M14 10l-4 4"/>
  </symbol>

  <symbol id="shield-pause" viewBox="0 0 24 24">
    <path d="M12 3l7 3v5c0 4.5-3 7.5-7 9-4-1.5-7-4.5-7-9V6z"/><path d="M10.5 9.5v5M13.5 9.5v5"/>
  </symbol>

  <symbol id="film" viewBox="0 0 24 24">
    <rect x="3" y="4" width="18" height="16" rx="2"/>
    <path d="M7 4v16M17 4v16M3 9h4M3 15h4M17 9h4M17 15h4"/>
  </symbol>

  <symbol id="mic" viewBox="0 0 24 24">
    <rect x="9" y="3" width="6" height="11" rx="3"/>
    <path d="M6 11a6 6 0 0 0 12 0M12 17v4M9 21h6"/>
  </symbol>

  <symbol id="face" viewBox="0 0 24 24">
    <circle cx="12" cy="12" r="9"/><path d="M9 10h.01M15 10h.01"/><path d="M9 15c.8.8 1.8 1.2 3 1.2s2.2-.4 3-1.2"/>
  </symbol>

  <symbol id="waveform" viewBox="0 0 24 24">
    <path d="M4 10v4M8 6v12M12 8v8M16 5v14M20 10v4"/>
  </symbol>

  <symbol id="play" viewBox="0 0 24 24">
    <path d="M7 5l12 7-12 7z"/>
  </symbol>

  <symbol id="camera" viewBox="0 0 24 24">
    <path d="M3 8a2 2 0 0 1 2-2h2l1.5-2h7L17 6h2a2 2 0 0 1 2 2v9a2 2 0 0 1-2 2H5a2 2 0 0 1-2-2z"/>
    <circle cx="12" cy="12.5" r="3.5"/>
  </symbol>

  <symbol id="music-note" viewBox="0 0 24 24">
    <path d="M9 18V5l10-2v13"/><circle cx="6" cy="18" r="3"/><circle cx="16" cy="16" r="3"/>
  </symbol>

  <symbol id="frame" viewBox="0 0 24 24">
    <rect x="3" y="3" width="18" height="18" rx="1.5"/><rect x="7" y="7" width="10" height="10" rx="1"/>
  </symbol>

  <symbol id="cpu" viewBox="0 0 24 24">
    <rect x="6" y="6" width="12" height="12" rx="1.5"/><rect x="9.5" y="9.5" width="5" height="5" rx="1"/>
    <path d="M9 3v3M15 3v3M9 18v3M15 18v3M3 9h3M3 15h3M18 9h3M18 15h3"/>
  </symbol>

  <symbol id="lock" viewBox="0 0 24 24">
    <rect x="5" y="11" width="14" height="10" rx="2"/><path d="M8 11V8a4 4 0 0 1 8 0v3"/>
  </symbol>

  <symbol id="alert" viewBox="0 0 24 24">
    <path d="M12 4l9 16H3z"/><path d="M12 10v4M12 17h.01"/>
  </symbol>

  <symbol id="mail" viewBox="0 0 24 24">
    <rect x="3" y="5" width="18" height="14" rx="2"/><path d="M4 7l8 6 8-6"/>
  </symbol>

  <symbol id="message" viewBox="0 0 24 24">
    <path d="M4 5h16a1 1 0 0 1 1 1v10a1 1 0 0 1-1 1H9l-5 4V6a1 1 0 0 1 1-1z"/>
  </symbol>

  <symbol id="linkedin" viewBox="0 0 24 24">
    <rect x="3" y="3" width="18" height="18" rx="2"/>
    <path d="M7 10v7M7 7v.01M11 17v-4a2 2 0 0 1 4 0v4M11 10v7"/>
  </symbol>

  <symbol id="arrow-right" viewBox="0 0 24 24">
    <path d="M4 12h15M13 6l6 6-6 6"/>
  </symbol>

  <symbol id="x-close" viewBox="0 0 24 24">
    <path d="M6 6l12 12M18 6L6 18"/>
  </symbol>

  <symbol id="check" viewBox="0 0 24 24">
    <path d="M5 12l5 5 9-11"/>
  </symbol>

  <symbol id="eye" viewBox="0 0 24 24">
    <path d="M2 12s3.5-7 10-7 10 7 10 7-3.5 7-10 7-10-7-10-7z"/><circle cx="12" cy="12" r="3"/>
  </symbol>

  <symbol id="scale" viewBox="0 0 24 24">
    <path d="M12 3v18M7 21h10M5 7h14M8 7l-3 6a3 3 0 0 0 6 0zM16 7l3 6a3 3 0 0 1-6 0z"/>
  </symbol>
</svg>
